<mxfile host="app.diagrams.net" modified="2024-05-02T21:19:07.126Z" agent="Mozilla/5.0 (X11; Linux x86_64; rv:123.0) Gecko/20100101 Firefox/123.0" etag="Ez1WyckP4VUsrhPW8ex-" version="24.3.1" type="device">
  <diagram name="Page-1" id="lsuQAEQXR6R6xUEELisg">
    <mxGraphModel dx="955" dy="590" grid="1" gridSize="10" guides="1" tooltips="1" connect="1" arrows="1" fold="1" page="1" pageScale="1" pageWidth="850" pageHeight="1100" math="0" shadow="0">
      <root>
        <mxCell id="0" />
        <mxCell id="1" parent="0" />
        <mxCell id="RE9Hr8g2CkzSdcSIeYkn-1" value="Alice" style="rounded=0;whiteSpace=wrap;html=1;align=left;verticalAlign=top;" vertex="1" parent="1">
          <mxGeometry x="130" y="70" width="160" height="360" as="geometry" />
        </mxCell>
        <mxCell id="RE9Hr8g2CkzSdcSIeYkn-2" value="Uni" style="rounded=0;whiteSpace=wrap;html=1;align=left;verticalAlign=top;" vertex="1" parent="1">
          <mxGeometry x="420" y="70" width="160" height="360" as="geometry" />
        </mxCell>
        <mxCell id="RE9Hr8g2CkzSdcSIeYkn-4" value="Bob" style="rounded=0;whiteSpace=wrap;html=1;align=left;verticalAlign=top;" vertex="1" parent="1">
          <mxGeometry x="700" y="70" width="160" height="360" as="geometry" />
        </mxCell>
        <mxCell id="RE9Hr8g2CkzSdcSIeYkn-5" value="&lt;div&gt;alicePubKey&lt;/div&gt;" style="rounded=0;whiteSpace=wrap;html=1;fillColor=#fa6800;strokeColor=#C73500;fontColor=#000000;" vertex="1" parent="1">
          <mxGeometry x="330" y="470" width="120" height="60" as="geometry" />
        </mxCell>
        <mxCell id="RE9Hr8g2CkzSdcSIeYkn-6" value="bobPubliKey" style="rounded=0;whiteSpace=wrap;html=1;fillColor=#fa6800;strokeColor=#C73500;fontColor=#000000;" vertex="1" parent="1">
          <mxGeometry x="470" y="470" width="120" height="60" as="geometry" />
        </mxCell>
        <mxCell id="RE9Hr8g2CkzSdcSIeYkn-8" value="signedVC" style="rounded=0;whiteSpace=wrap;html=1;fillColor=#fa6800;strokeColor=#C73500;fontColor=#000000;" vertex="1" parent="1">
          <mxGeometry x="330" y="540" width="120" height="60" as="geometry" />
        </mxCell>
        <mxCell id="RE9Hr8g2CkzSdcSIeYkn-10" value="unisPubKey" style="rounded=0;whiteSpace=wrap;html=1;fillColor=#fa6800;strokeColor=#C73500;fontColor=#000000;" vertex="1" parent="1">
          <mxGeometry x="470" y="540" width="120" height="60" as="geometry" />
        </mxCell>
        <mxCell id="RE9Hr8g2CkzSdcSIeYkn-16" value="&lt;div&gt;bobPubKey&lt;/div&gt;" style="rounded=0;whiteSpace=wrap;html=1;fillColor=#b1ddf0;strokeColor=#10739e;" vertex="1" parent="1">
          <mxGeometry x="440" y="110" width="120" height="60" as="geometry" />
        </mxCell>
        <mxCell id="RE9Hr8g2CkzSdcSIeYkn-18" value="Mail&lt;br&gt;VC&lt;br&gt;Signature" style="shape=note;whiteSpace=wrap;html=1;backgroundOutline=1;darkOpacity=0.05;align=center;verticalAlign=bottom;size=16;" vertex="1" parent="1">
          <mxGeometry x="610" y="490" width="60" height="80" as="geometry" />
        </mxCell>
        <mxCell id="RE9Hr8g2CkzSdcSIeYkn-20" value="unisPubKey" style="rounded=0;whiteSpace=wrap;html=1;fillColor=#b1ddf0;strokeColor=#10739e;" vertex="1" parent="1">
          <mxGeometry x="720" y="110" width="120" height="60" as="geometry" />
        </mxCell>
      </root>
    </mxGraphModel>
  </diagram>
</mxfile>
